<svg xmlns="http://www.w3.org/2000/svg" width="63" height="10" viewBox="0 0 63 10" fill="none">
<path d="M2.184 2.796H3.42V3.696H2.184V7.548C2.184 7.668 2.192 7.764 2.208 7.836C2.232 7.908 2.272 7.964 2.328 8.004C2.384 8.044 2.46 8.072 2.556 8.088C2.66 8.096 2.792 8.1 2.952 8.1H3.42V9H2.64C2.376 9 2.148 8.984 1.956 8.952C1.772 8.912 1.62 8.844 1.5 8.748C1.388 8.652 1.304 8.516 1.248 8.34C1.192 8.164 1.164 7.932 1.164 7.644V3.696H0.108V2.796H1.164V0.935999H2.184V2.796ZM5.63316 1.68H4.61316V0.431999H5.63316V1.68ZM4.61316 2.796H5.63316V9H4.61316V2.796ZM7.21331 2.796H8.17331V3.708H8.19731C8.66131 3.004 9.32931 2.652 10.2013 2.652C10.5853 2.652 10.9333 2.732 11.2453 2.892C11.5573 3.052 11.7773 3.324 11.9053 3.708C12.1133 3.372 12.3853 3.112 12.7213 2.928C13.0653 2.744 13.4413 2.652 13.8493 2.652C14.1613 2.652 14.4413 2.688 14.6893 2.76C14.9453 2.824 15.1613 2.928 15.3373 3.072C15.5213 3.216 15.6613 3.404 15.7573 3.636C15.8613 3.86 15.9133 4.132 15.9133 4.452V9H14.8933V4.932C14.8933 4.74 14.8773 4.56 14.8453 4.392C14.8133 4.224 14.7533 4.08 14.6653 3.96C14.5773 3.832 14.4533 3.732 14.2933 3.66C14.1413 3.588 13.9413 3.552 13.6933 3.552C13.1893 3.552 12.7933 3.696 12.5053 3.984C12.2173 4.272 12.0733 4.656 12.0733 5.136V9H11.0533V4.932C11.0533 4.732 11.0333 4.548 10.9933 4.38C10.9613 4.212 10.9013 4.068 10.8133 3.948C10.7253 3.82 10.6053 3.724 10.4533 3.66C10.3093 3.588 10.1213 3.552 9.88931 3.552C9.59331 3.552 9.33731 3.612 9.12131 3.732C8.91331 3.852 8.74131 3.996 8.60531 4.164C8.47731 4.332 8.38131 4.508 8.31731 4.692C8.26131 4.868 8.23331 5.016 8.23331 5.136V9H7.21331V2.796ZM22.5798 9H21.6198V8.016H21.5958C21.3798 8.4 21.1038 8.684 20.7678 8.868C20.4318 9.044 20.0358 9.132 19.5798 9.132C19.1718 9.132 18.8318 9.08 18.5598 8.976C18.2878 8.864 18.0678 8.708 17.8998 8.508C17.7318 8.308 17.6118 8.072 17.5398 7.8C17.4758 7.52 17.4438 7.212 17.4438 6.876V2.796H18.4638V6.996C18.4638 7.38 18.5758 7.684 18.7998 7.908C19.0238 8.132 19.3318 8.244 19.7238 8.244C20.0358 8.244 20.3038 8.196 20.5278 8.1C20.7598 8.004 20.9518 7.868 21.1038 7.692C21.2558 7.516 21.3678 7.312 21.4398 7.08C21.5198 6.84 21.5598 6.58 21.5598 6.3V2.796H22.5798V9ZM24.0758 2.796H25.0358V4.104H25.0598C25.3078 3.6 25.6118 3.228 25.9718 2.988C26.3318 2.748 26.7878 2.636 27.3398 2.652V3.732C26.9318 3.732 26.5838 3.788 26.2958 3.9C26.0078 4.012 25.7758 4.176 25.5998 4.392C25.4238 4.608 25.2958 4.872 25.2158 5.184C25.1358 5.488 25.0958 5.84 25.0958 6.24V9H24.0758V2.796ZM28.7318 7.044C28.7398 7.268 28.7918 7.46 28.8878 7.62C28.9838 7.772 29.1078 7.896 29.2598 7.992C29.4198 8.08 29.5958 8.144 29.7878 8.184C29.9878 8.224 30.1918 8.244 30.3998 8.244C30.5598 8.244 30.7278 8.232 30.9038 8.208C31.0798 8.184 31.2398 8.14 31.3838 8.076C31.5358 8.012 31.6598 7.92 31.7558 7.8C31.8518 7.672 31.8998 7.512 31.8998 7.32C31.8998 7.056 31.7998 6.856 31.5998 6.72C31.3998 6.584 31.1478 6.476 30.8438 6.396C30.5478 6.308 30.2238 6.232 29.8718 6.168C29.5198 6.096 29.1918 6 28.8878 5.88C28.5918 5.752 28.3438 5.576 28.1438 5.352C27.9438 5.128 27.8438 4.816 27.8438 4.416C27.8438 4.104 27.9118 3.836 28.0478 3.612C28.1918 3.388 28.3718 3.208 28.5878 3.072C28.8118 2.928 29.0598 2.824 29.3318 2.76C29.6118 2.688 29.8878 2.652 30.1598 2.652C30.5118 2.652 30.8358 2.684 31.1318 2.748C31.4278 2.804 31.6878 2.908 31.9118 3.06C32.1438 3.204 32.3278 3.404 32.4638 3.66C32.5998 3.908 32.6798 4.22 32.7038 4.596H31.6838C31.6678 4.396 31.6158 4.232 31.5278 4.104C31.4398 3.968 31.3278 3.86 31.1918 3.78C31.0558 3.7 30.9038 3.644 30.7358 3.612C30.5758 3.572 30.4118 3.552 30.2438 3.552C30.0918 3.552 29.9358 3.564 29.7758 3.588C29.6238 3.612 29.4838 3.656 29.3558 3.72C29.2278 3.776 29.1238 3.856 29.0438 3.96C28.9638 4.056 28.9238 4.184 28.9238 4.344C28.9238 4.52 28.9838 4.668 29.1038 4.788C29.2318 4.9 29.3918 4.996 29.5838 5.076C29.7758 5.148 29.9918 5.212 30.2318 5.268C30.4718 5.316 30.7118 5.368 30.9518 5.424C31.2078 5.48 31.4558 5.548 31.6958 5.628C31.9438 5.708 32.1598 5.816 32.3438 5.952C32.5358 6.08 32.6878 6.244 32.7998 6.444C32.9198 6.644 32.9798 6.892 32.9798 7.188C32.9798 7.564 32.8998 7.876 32.7398 8.124C32.5878 8.372 32.3838 8.572 32.1278 8.724C31.8798 8.876 31.5958 8.98 31.2758 9.036C30.9638 9.1 30.6518 9.132 30.3398 9.132C29.9958 9.132 29.6678 9.096 29.3558 9.024C29.0438 8.952 28.7678 8.836 28.5278 8.676C28.2878 8.508 28.0958 8.292 27.9518 8.028C27.8078 7.756 27.7278 7.428 27.7118 7.044H28.7318ZM39.6038 8.976C39.4278 9.08 39.1838 9.132 38.8718 9.132C38.6078 9.132 38.3958 9.06 38.2358 8.916C38.0838 8.764 38.0078 8.52 38.0078 8.184C37.7278 8.52 37.3998 8.764 37.0238 8.916C36.6558 9.06 36.2558 9.132 35.8238 9.132C35.5438 9.132 35.2758 9.1 35.0198 9.036C34.7718 8.972 34.5558 8.872 34.3718 8.736C34.1878 8.6 34.0398 8.424 33.9278 8.208C33.8238 7.984 33.7718 7.716 33.7718 7.404C33.7718 7.052 33.8318 6.764 33.9518 6.54C34.0718 6.316 34.2278 6.136 34.4198 6C34.6198 5.856 34.8438 5.748 35.0918 5.676C35.3478 5.604 35.6078 5.544 35.8718 5.496C36.1518 5.44 36.4158 5.4 36.6638 5.376C36.9198 5.344 37.1438 5.304 37.3358 5.256C37.5278 5.2 37.6798 5.124 37.7918 5.028C37.9038 4.924 37.9598 4.776 37.9598 4.584C37.9598 4.36 37.9158 4.18 37.8278 4.044C37.7478 3.908 37.6398 3.804 37.5038 3.732C37.3758 3.66 37.2278 3.612 37.0598 3.588C36.8998 3.564 36.7398 3.552 36.5798 3.552C36.1478 3.552 35.7878 3.636 35.4998 3.804C35.2118 3.964 35.0558 4.272 35.0318 4.728H34.0118C34.0278 4.344 34.1078 4.02 34.2518 3.756C34.3958 3.492 34.5878 3.28 34.8278 3.12C35.0678 2.952 35.3398 2.832 35.6438 2.76C35.9558 2.688 36.2878 2.652 36.6398 2.652C36.9198 2.652 37.1958 2.672 37.4678 2.712C37.7478 2.752 37.9998 2.836 38.2238 2.964C38.4478 3.084 38.6278 3.256 38.7638 3.48C38.8998 3.704 38.9678 3.996 38.9678 4.356V7.548C38.9678 7.788 38.9798 7.964 39.0038 8.076C39.0358 8.188 39.1318 8.244 39.2918 8.244C39.3798 8.244 39.4838 8.224 39.6038 8.184V8.976ZM37.9478 5.796C37.8198 5.892 37.6518 5.964 37.4438 6.012C37.2358 6.052 37.0158 6.088 36.7838 6.12C36.5598 6.144 36.3318 6.176 36.0998 6.216C35.8678 6.248 35.6598 6.304 35.4758 6.384C35.2918 6.464 35.1398 6.58 35.0198 6.732C34.9078 6.876 34.8518 7.076 34.8518 7.332C34.8518 7.5 34.8838 7.644 34.9478 7.764C35.0198 7.876 35.1078 7.968 35.2118 8.04C35.3238 8.112 35.4518 8.164 35.5958 8.196C35.7398 8.228 35.8918 8.244 36.0518 8.244C36.3878 8.244 36.6758 8.2 36.9158 8.112C37.1558 8.016 37.3518 7.9 37.5038 7.764C37.6558 7.62 37.7678 7.468 37.8398 7.308C37.9118 7.14 37.9478 6.984 37.9478 6.84V5.796ZM45.6892 9H44.7292V8.016H44.7052C44.4892 8.4 44.2132 8.684 43.8772 8.868C43.5412 9.044 43.1452 9.132 42.6892 9.132C42.2812 9.132 41.9412 9.08 41.6692 8.976C41.3972 8.864 41.1772 8.708 41.0092 8.508C40.8412 8.308 40.7212 8.072 40.6492 7.8C40.5852 7.52 40.5532 7.212 40.5532 6.876V2.796H41.5732V6.996C41.5732 7.38 41.6852 7.684 41.9092 7.908C42.1332 8.132 42.4412 8.244 42.8332 8.244C43.1452 8.244 43.4132 8.196 43.6372 8.1C43.8692 8.004 44.0612 7.868 44.2132 7.692C44.3652 7.516 44.4772 7.312 44.5492 7.08C44.6292 6.84 44.6692 6.58 44.6692 6.3V2.796H45.6892V9ZM47.1851 2.796H48.1451V4.104H48.1691C48.4171 3.6 48.7211 3.228 49.0811 2.988C49.4411 2.748 49.8971 2.636 50.4491 2.652V3.732C50.0411 3.732 49.6931 3.788 49.4051 3.9C49.1171 4.012 48.8851 4.176 48.7091 4.392C48.5331 4.608 48.4051 4.872 48.3251 5.184C48.2451 5.488 48.2051 5.84 48.2051 6.24V9H47.1851V2.796ZM56.3532 9H55.3932V8.016H55.3692C55.1532 8.4 54.8772 8.684 54.5412 8.868C54.2052 9.044 53.8092 9.132 53.3532 9.132C52.9452 9.132 52.6052 9.08 52.3332 8.976C52.0612 8.864 51.8412 8.708 51.6732 8.508C51.5052 8.308 51.3852 8.072 51.3132 7.8C51.2492 7.52 51.2172 7.212 51.2172 6.876V2.796H52.2372V6.996C52.2372 7.38 52.3492 7.684 52.5732 7.908C52.7972 8.132 53.1052 8.244 53.4972 8.244C53.8092 8.244 54.0772 8.196 54.3012 8.1C54.5332 8.004 54.7252 7.868 54.8772 7.692C55.0292 7.516 55.1412 7.312 55.2132 7.08C55.2932 6.84 55.3332 6.58 55.3332 6.3V2.796H56.3532V9ZM58.5092 7.044C58.5172 7.268 58.5692 7.46 58.6652 7.62C58.7612 7.772 58.8852 7.896 59.0372 7.992C59.1972 8.08 59.3732 8.144 59.5652 8.184C59.7652 8.224 59.9692 8.244 60.1772 8.244C60.3372 8.244 60.5052 8.232 60.6812 8.208C60.8572 8.184 61.0172 8.14 61.1612 8.076C61.3132 8.012 61.4372 7.92 61.5332 7.8C61.6292 7.672 61.6772 7.512 61.6772 7.32C61.6772 7.056 61.5772 6.856 61.3772 6.72C61.1772 6.584 60.9252 6.476 60.6212 6.396C60.3252 6.308 60.0012 6.232 59.6492 6.168C59.2972 6.096 58.9692 6 58.6652 5.88C58.3692 5.752 58.1212 5.576 57.9212 5.352C57.7212 5.128 57.6212 4.816 57.6212 4.416C57.6212 4.104 57.6892 3.836 57.8252 3.612C57.9692 3.388 58.1492 3.208 58.3652 3.072C58.5892 2.928 58.8372 2.824 59.1092 2.76C59.3892 2.688 59.6652 2.652 59.9372 2.652C60.2892 2.652 60.6132 2.684 60.9092 2.748C61.2052 2.804 61.4652 2.908 61.6892 3.06C61.9212 3.204 62.1052 3.404 62.2412 3.66C62.3772 3.908 62.4572 4.22 62.4812 4.596H61.4612C61.4452 4.396 61.3932 4.232 61.3052 4.104C61.2172 3.968 61.1052 3.86 60.9692 3.78C60.8332 3.7 60.6812 3.644 60.5132 3.612C60.3532 3.572 60.1892 3.552 60.0212 3.552C59.8692 3.552 59.7132 3.564 59.5532 3.588C59.4012 3.612 59.2612 3.656 59.1332 3.72C59.0052 3.776 58.9012 3.856 58.8212 3.96C58.7412 4.056 58.7012 4.184 58.7012 4.344C58.7012 4.52 58.7612 4.668 58.8812 4.788C59.0092 4.9 59.1692 4.996 59.3612 5.076C59.5532 5.148 59.7692 5.212 60.0092 5.268C60.2492 5.316 60.4892 5.368 60.7292 5.424C60.9852 5.48 61.2332 5.548 61.4732 5.628C61.7212 5.708 61.9372 5.816 62.1212 5.952C62.3132 6.08 62.4652 6.244 62.5772 6.444C62.6972 6.644 62.7572 6.892 62.7572 7.188C62.7572 7.564 62.6772 7.876 62.5172 8.124C62.3652 8.372 62.1612 8.572 61.9052 8.724C61.6572 8.876 61.3732 8.98 61.0532 9.036C60.7412 9.1 60.4292 9.132 60.1172 9.132C59.7732 9.132 59.4452 9.096 59.1332 9.024C58.8212 8.952 58.5452 8.836 58.3052 8.676C58.0652 8.508 57.8732 8.292 57.7292 8.028C57.5852 7.756 57.5052 7.428 57.4892 7.044H58.5092Z" fill="black"/>
</svg>